<?xml version="1.0" encoding="utf-8"?>
<!-- Generator: Adobe Illustrator 15.0.2, SVG Export Plug-In . SVG Version: 6.00 Build 0)  -->
<!DOCTYPE svg PUBLIC "-//W3C//DTD SVG 1.1//EN" "http://www.w3.org/Graphics/SVG/1.1/DTD/svg11.dtd">
<svg version="1.1" id="Layer_1" xmlns="http://www.w3.org/2000/svg" xmlns:xlink="http://www.w3.org/1999/xlink" x="0px" y="0px"
	 width="1024px" height="1024px" viewBox="0 0 1024 1024" enable-background="new 0 0 1024 1024" xml:space="preserve">
<g>
	<path d="M608.8,819.2C379.4,819.2,193.4,865,193.4,921.6c0,56.601,186,102.4,415.4,102.4c229.4,0,415.2-45.8,415.2-102.4
		C1024,865,838.2,819.2,608.8,819.2z M614.8,968.6C492.4,968.6,393.2,944,393.2,914c0-30.2,99.2-54.6,221.6-54.6
		C737.2,859.4,836.4,883.8,836.4,914S737.2,968.6,614.8,968.6z"/>
	<path d="M445.8,398.4c4.4,9.199,10.4,17.8,17.8,26.399c7.4,8.4,23,12.601,46.601,12.601H612V506.8H445.6
		c-9,0-16.399,7.2-16.399,16.2s7.399,16.2,16.399,16.2H947.4c5,0,9.199-2.601,11.8-6.4l60-60.6c6.399-6.601,6.399-16.8,0-23.2
		c-6.4-6-16.4-6-23,0L939.6,506.8H787.4V437.4H916.6c12.4,0,24.601-1,36.2-3.2c11.8-2.4,21.601-8.4,29.601-18.601
		c6.8-8,10.199-19,10.199-33.8c0-10.2-3-23-8.6-38.8l-49-116.6c-15.6-35.8-36.2-61-61.6-75c-25.2-14.4-52-21.2-80.2-21.2H597.4v-93
		H654.8c3.4,5.8,7.601,9.4,12,11c4.4,1.8,8.2,2.6,11.601,2.6H954c9,0,15.6-2.6,20-7.6s7.4-11,8.4-17.8c0-5.8-2.2-11.4-6.601-16.8
		C971.2,2.8,964,0,954,0H688.8C676.4,0,668.4,1.6,664.4,4.2c-4,3-7.2,6.4-9.4,11.2H498c-2.2-2.4-4.6-5.2-7.6-8.6
		c-2.601-3.4-8-5-16-5H195.8c-4.4,0-9.6,2-16.2,6c-6,4-9.2,10.4-9.2,19.6c0,8.8,3,15.8,9.2,20c6.4,4.6,11.4,6.8,14.6,6.8H474.6
		c2.2,0,5.801-1,11-2.6c5-1.6,9.2-5.8,12.601-12.8h59.2V130h-353c-7.8-19.2-20.6-35.4-38-48.2c-17.6-13-37.4-19.4-60-19.4
		c-29.2,0-54.2,10.4-75.2,31.2c-21,21-31.2,46-31.2,75.4c0,29.2,10.2,54,31.2,74.2c21,20.4,45.8,30.4,75.2,30.4
		c33.6,0,60.2-12.4,79.2-37.2l229.8,86.2L445.8,398.4z M832.4,177.4c14.6,4.2,27.199,11.4,37.8,21C881,208,890.8,223,900,243.2
		c2.2,6.8,5,14.2,8.4,22c3.199,7.6,6.6,16.2,10,25.2h-86V177.4z M760.6,506.8H638.8V437.4h121.8V506.8z M714,172.4h76V289h-76V172.4
		z M597.6,174H672v116.6h-74.4V174z M87,196c8.2,5.6,17,10,26.2,13.2l33.8,13.6c-12.6,9-26.2,13.4-40.6,13.4
		c-19.2,0-35.6-6.4-49.2-19.4c-13.4-13-20-28.8-20-48c0-19.4,6.6-35.2,20-48.2c13.6-13,30-19.4,49.2-19.4c23.6,0,42,9.4,55.8,28.6
		h-47.4c-11.2,0-20.8,3.2-28.6,10.2c-7.8,6.6-11.6,16.2-11.6,28.6C74.4,181.4,78.6,190.4,87,196z"/>
</g>
</svg>
